<?xml version="1.0" encoding="UTF-8" standalone="no"?>
<svg
   viewBox="0 0 24 24"
   version="1.1"
   id="svg134"
   sodipodi:docname="botIcon.svg"
   inkscape:export-filename="botIcon.png"
   inkscape:export-xdpi="400"
   inkscape:export-ydpi="400"
   inkscape:version="1.2.1 (9c6d41e, 2022-07-14)"
   xmlns:inkscape="http://www.inkscape.org/namespaces/inkscape"
   xmlns:sodipodi="http://sodipodi.sourceforge.net/DTD/sodipodi-0.dtd"
   xmlns="http://www.w3.org/2000/svg"
   xmlns:svg="http://www.w3.org/2000/svg">
  <defs
     id="defs138" />
  <sodipodi:namedview
     id="namedview136"
     pagecolor="#ffffff"
     bordercolor="#666666"
     borderopacity="1.0"
     inkscape:showpageshadow="2"
     inkscape:pageopacity="0.0"
     inkscape:pagecheckerboard="0"
     inkscape:deskcolor="#d1d1d1"
     showgrid="false"
     inkscape:zoom="34.375"
     inkscape:cx="11.025455"
     inkscape:cy="9.9345455"
     inkscape:window-width="1564"
     inkscape:window-height="975"
     inkscape:window-x="1796"
     inkscape:window-y="25"
     inkscape:window-maximized="0"
     inkscape:current-layer="svg134" />
  <path
     d="M8.964 4l6.073.011c3.846 0 6.963 3.13 6.963 6.99 0 3.617-2.74 6.594-6.251 6.952l-.243.02-3.2 3.683-1.509-1.312 3.784-4.355h.456c2.74 0 4.963-2.232 4.963-4.988 0-2.684-2.108-4.872-4.75-4.985l-.215-.005L8.962 6C6.222 6 4 8.232 4 10.988c0 2.687 2.11 4.883 4.747 4.996l.215.005h1.162v2H8.962C5.117 17.989 2 14.849 2 10.988c0-3.779 2.987-6.857 6.724-6.984L8.964 4zM12 10a1 1 0 110 1.998 1 1 0 010-1.999zm-4 0a1 1 0 110 1.998 1 1 0 010-1.999zm8 0a1 1 0 110 1.998 1 1 0 010-1.999z"
     fill="#FFF"
     fill-rule="evenodd"
     id="path132"
     style="fill:#0069b1;fill-opacity:1" />
</svg>
